<svg width="452" height="260" viewBox="0 0 452 260" fill="none" xmlns="http://www.w3.org/2000/svg">
<rect width="452" height="260" rx="20" fill="white"/>
<path d="M21.5293 220.734L22.625 223.828L23.7148 220.734H24.8691V225H23.9873V223.834L24.0752 221.821L22.9238 225H22.3203L21.1719 221.824L21.2598 223.834V225H20.3809V220.734H21.5293ZM28.3377 224.121H26.7966L26.5037 225H25.5691L27.157 220.734H27.9714L29.5681 225H28.6336L28.3377 224.121ZM27.0339 223.409H28.1004L27.5642 221.812L27.0339 223.409ZM31.2378 222.656L32.1255 220.734H33.0864L31.6861 223.453V225H30.7925V223.453L29.3921 220.734H30.356L31.2378 222.656ZM68.3845 220.734H69.2634V223.688C69.2634 223.959 69.2029 224.199 69.0818 224.408C68.9626 224.615 68.7937 224.775 68.5749 224.889C68.3562 225.002 68.1091 225.059 67.8337 225.059C67.3825 225.059 67.031 224.944 66.779 224.716C66.5271 224.485 66.4011 224.16 66.4011 223.74H67.2859C67.2859 223.949 67.3298 224.104 67.4177 224.203C67.5056 224.303 67.6443 224.353 67.8337 224.353C68.0017 224.353 68.1355 224.295 68.2351 224.18C68.3347 224.064 68.3845 223.9 68.3845 223.688V220.734ZM73.4848 220.734V223.544C73.4848 224.011 73.3384 224.38 73.0454 224.651C72.7544 224.923 72.3559 225.059 71.8501 225.059C71.352 225.059 70.9565 224.927 70.6636 224.663C70.3706 224.399 70.2212 224.037 70.2153 223.576V220.734H71.0942V223.55C71.0942 223.829 71.1606 224.033 71.2934 224.162C71.4282 224.289 71.6138 224.353 71.8501 224.353C72.3442 224.353 72.5952 224.093 72.603 223.573V220.734H73.4848ZM77.9143 225H77.0354L75.3245 222.193V225H74.4455V220.734H75.3245L77.0383 223.547V220.734H77.9143V225ZM113.59 220.734H114.469V223.688C114.469 223.959 114.409 224.199 114.288 224.408C114.168 224.615 113.999 224.775 113.781 224.889C113.562 225.002 113.315 225.059 113.039 225.059C112.588 225.059 112.237 224.944 111.985 224.716C111.733 224.485 111.607 224.16 111.607 223.74H112.492C112.492 223.949 112.536 224.104 112.623 224.203C112.711 224.303 112.85 224.353 113.039 224.353C113.207 224.353 113.341 224.295 113.441 224.18C113.54 224.064 113.59 223.9 113.59 223.688V220.734ZM118.691 220.734V223.544C118.691 224.011 118.544 224.38 118.251 224.651C117.96 224.923 117.562 225.059 117.056 225.059C116.558 225.059 116.162 224.927 115.869 224.663C115.576 224.399 115.427 224.037 115.421 223.576V220.734H116.3V223.55C116.3 223.829 116.366 224.033 116.499 224.162C116.634 224.289 116.82 224.353 117.056 224.353C117.55 224.353 117.801 224.093 117.809 223.573V220.734H118.691ZM120.53 224.294H122.396V225H119.651V220.734H120.53V224.294ZM156.766 224.121H155.225L154.932 225H153.997L155.585 220.734H156.4L157.996 225H157.062L156.766 224.121ZM155.462 223.409H156.529L155.993 221.812L155.462 223.409ZM161.811 220.734V223.544C161.811 224.011 161.664 224.38 161.371 224.651C161.08 224.923 160.682 225.059 160.176 225.059C159.678 225.059 159.282 224.927 158.989 224.663C158.696 224.399 158.547 224.037 158.541 223.576V220.734H159.42V223.55C159.42 223.829 159.486 224.033 159.619 224.162C159.754 224.289 159.94 224.353 160.176 224.353C160.67 224.353 160.921 224.093 160.929 223.573V220.734H161.811ZM166.146 224.461C165.988 224.65 165.765 224.798 165.476 224.903C165.186 225.007 164.866 225.059 164.515 225.059C164.145 225.059 163.821 224.979 163.542 224.818C163.265 224.656 163.05 224.422 162.897 224.115C162.747 223.809 162.67 223.448 162.666 223.034V222.744C162.666 222.318 162.737 221.95 162.88 221.64C163.024 221.327 163.231 221.089 163.501 220.925C163.772 220.759 164.09 220.676 164.453 220.676C164.959 220.676 165.354 220.797 165.64 221.039C165.925 221.279 166.094 221.63 166.146 222.091H165.291C165.252 221.847 165.165 221.668 165.03 221.555C164.897 221.441 164.714 221.385 164.479 221.385C164.181 221.385 163.953 221.497 163.797 221.722C163.641 221.946 163.561 222.28 163.559 222.724V222.996C163.559 223.443 163.644 223.781 163.814 224.01C163.984 224.238 164.233 224.353 164.561 224.353C164.892 224.353 165.127 224.282 165.268 224.142V223.406H164.468V222.759H166.146V224.461ZM202.262 223.881C202.262 223.715 202.203 223.588 202.086 223.5C201.969 223.41 201.758 223.316 201.453 223.219C201.149 223.119 200.907 223.021 200.73 222.926C200.245 222.664 200.003 222.312 200.003 221.868C200.003 221.638 200.068 221.433 200.196 221.253C200.327 221.071 200.514 220.93 200.756 220.828C201 220.727 201.274 220.676 201.576 220.676C201.881 220.676 202.152 220.731 202.391 220.843C202.629 220.952 202.814 221.107 202.944 221.309C203.077 221.51 203.144 221.738 203.144 221.994H202.265C202.265 221.799 202.203 221.647 202.08 221.54C201.957 221.431 201.784 221.376 201.562 221.376C201.347 221.376 201.18 221.422 201.061 221.514C200.942 221.604 200.882 221.723 200.882 221.871C200.882 222.01 200.951 222.126 201.09 222.22C201.231 222.313 201.437 222.401 201.708 222.483C202.208 222.634 202.572 222.82 202.801 223.043C203.029 223.266 203.144 223.543 203.144 223.875C203.144 224.244 203.004 224.534 202.725 224.745C202.445 224.954 202.069 225.059 201.597 225.059C201.269 225.059 200.97 224.999 200.7 224.88C200.431 224.759 200.225 224.594 200.082 224.385C199.942 224.176 199.871 223.934 199.871 223.658H200.753C200.753 224.129 201.034 224.364 201.597 224.364C201.806 224.364 201.969 224.322 202.086 224.238C202.203 224.152 202.262 224.033 202.262 223.881ZM206.548 223.151H204.86V224.294H206.841V225H203.981V220.734H206.835V221.446H204.86V222.463H206.548V223.151ZM208.475 223.497V225H207.596V220.734H209.26C209.581 220.734 209.862 220.793 210.104 220.91C210.348 221.027 210.536 221.194 210.667 221.411C210.798 221.626 210.863 221.871 210.863 222.146C210.863 222.564 210.719 222.895 210.432 223.137C210.147 223.377 209.752 223.497 209.246 223.497H208.475ZM208.475 222.785H209.26C209.493 222.785 209.67 222.73 209.791 222.621C209.914 222.512 209.975 222.355 209.975 222.152C209.975 221.943 209.914 221.774 209.791 221.646C209.668 221.517 209.498 221.45 209.281 221.446H208.475V222.785ZM246.428 222.964C246.428 223.384 246.354 223.752 246.205 224.068C246.057 224.385 245.844 224.629 245.566 224.801C245.291 224.973 244.975 225.059 244.617 225.059C244.264 225.059 243.948 224.974 243.671 224.804C243.394 224.634 243.179 224.392 243.026 224.077C242.874 223.761 242.797 223.397 242.795 222.987V222.776C242.795 222.356 242.87 221.987 243.021 221.669C243.173 221.349 243.387 221.104 243.662 220.934C243.94 220.762 244.256 220.676 244.611 220.676C244.967 220.676 245.282 220.762 245.558 220.934C245.835 221.104 246.049 221.349 246.199 221.669C246.352 221.987 246.428 222.355 246.428 222.773V222.964ZM245.537 222.771C245.537 222.323 245.457 221.983 245.297 221.751C245.137 221.519 244.908 221.402 244.611 221.402C244.316 221.402 244.089 221.518 243.929 221.748C243.769 221.977 243.688 222.312 243.686 222.756V222.964C243.686 223.399 243.766 223.737 243.926 223.978C244.086 224.218 244.316 224.338 244.617 224.338C244.912 224.338 245.139 224.223 245.297 223.992C245.455 223.76 245.535 223.422 245.537 222.979V222.771ZM250.655 223.579C250.622 224.038 250.452 224.399 250.145 224.663C249.841 224.927 249.438 225.059 248.938 225.059C248.391 225.059 247.961 224.875 247.646 224.508C247.334 224.139 247.178 223.633 247.178 222.99V222.729C247.178 222.319 247.25 221.958 247.394 221.646C247.539 221.333 247.745 221.094 248.013 220.928C248.282 220.76 248.595 220.676 248.95 220.676C249.442 220.676 249.839 220.808 250.139 221.071C250.44 221.335 250.614 221.705 250.661 222.182H249.782C249.761 221.906 249.683 221.707 249.551 221.584C249.42 221.459 249.22 221.396 248.95 221.396C248.657 221.396 248.437 221.502 248.291 221.713C248.146 221.922 248.072 222.247 248.068 222.688V223.011C248.068 223.472 248.138 223.809 248.276 224.021C248.417 224.234 248.638 224.341 248.938 224.341C249.21 224.341 249.412 224.279 249.545 224.156C249.68 224.031 249.757 223.839 249.776 223.579H250.655ZM254.595 221.446H253.289V225H252.41V221.446H251.121V220.734H254.595V221.446ZM291.581 225H290.702L288.991 222.193V225H288.112V220.734H288.991L290.705 223.547V220.734H291.581V225ZM296.092 222.964C296.092 223.384 296.018 223.752 295.87 224.068C295.721 224.385 295.508 224.629 295.231 224.801C294.956 224.973 294.639 225.059 294.282 225.059C293.928 225.059 293.613 224.974 293.336 224.804C293.058 224.634 292.843 224.392 292.691 224.077C292.539 223.761 292.461 223.397 292.46 222.987V222.776C292.46 222.356 292.535 221.987 292.685 221.669C292.837 221.349 293.051 221.104 293.327 220.934C293.604 220.762 293.92 220.676 294.276 220.676C294.631 220.676 294.947 220.762 295.222 220.934C295.5 221.104 295.713 221.349 295.864 221.669C296.016 221.987 296.092 222.355 296.092 222.773V222.964ZM295.202 222.771C295.202 222.323 295.122 221.983 294.961 221.751C294.801 221.519 294.573 221.402 294.276 221.402C293.981 221.402 293.753 221.518 293.593 221.748C293.433 221.977 293.352 222.312 293.35 222.756V222.964C293.35 223.399 293.43 223.737 293.59 223.978C293.751 224.218 293.981 224.338 294.282 224.338C294.577 224.338 294.803 224.223 294.961 223.992C295.12 223.76 295.2 223.422 295.202 222.979V222.771ZM298.483 223.942L299.45 220.734H300.428L298.943 225H298.026L296.546 220.734H297.522L298.483 223.942ZM332.287 225V220.734H333.599C333.974 220.734 334.309 220.819 334.604 220.989C334.901 221.157 335.133 221.397 335.299 221.71C335.465 222.021 335.548 222.374 335.548 222.771V222.967C335.548 223.363 335.466 223.716 335.302 224.024C335.139 224.333 334.91 224.572 334.613 224.742C334.316 224.912 333.981 224.998 333.608 225H332.287ZM333.166 221.446V224.294H333.591C333.934 224.294 334.197 224.182 334.379 223.957C334.56 223.732 334.653 223.411 334.657 222.993V222.768C334.657 222.334 334.567 222.006 334.387 221.783C334.208 221.559 333.945 221.446 333.599 221.446H333.166ZM338.996 223.151H337.308V224.294H339.289V225H336.429V220.734H339.283V221.446H337.308V222.463H338.996V223.151ZM343.393 223.579C343.36 224.038 343.19 224.399 342.883 224.663C342.578 224.927 342.176 225.059 341.676 225.059C341.129 225.059 340.699 224.875 340.384 224.508C340.072 224.139 339.915 223.633 339.915 222.99V222.729C339.915 222.319 339.988 221.958 340.132 221.646C340.277 221.333 340.483 221.094 340.75 220.928C341.02 220.76 341.332 220.676 341.688 220.676C342.18 220.676 342.576 220.808 342.877 221.071C343.178 221.335 343.352 221.705 343.399 222.182H342.52C342.498 221.906 342.421 221.707 342.288 221.584C342.158 221.459 341.957 221.396 341.688 221.396C341.395 221.396 341.175 221.502 341.029 221.713C340.884 221.922 340.81 222.247 340.806 222.688V223.011C340.806 223.472 340.875 223.809 341.014 224.021C341.155 224.234 341.375 224.341 341.676 224.341C341.948 224.341 342.15 224.279 342.283 224.156C342.417 224.031 342.494 223.839 342.514 223.579H343.393ZM378.878 220.734H379.757V223.688C379.757 223.959 379.697 224.199 379.576 224.408C379.457 224.615 379.288 224.775 379.069 224.889C378.85 225.002 378.603 225.059 378.328 225.059C377.876 225.059 377.525 224.944 377.273 224.716C377.021 224.485 376.895 224.16 376.895 223.74H377.78C377.78 223.949 377.824 224.104 377.912 224.203C377.999 224.303 378.138 224.353 378.328 224.353C378.496 224.353 378.629 224.295 378.729 224.18C378.829 224.064 378.878 223.9 378.878 223.688V220.734ZM383.094 224.121H381.553L381.26 225H380.325L381.913 220.734H382.728L384.324 225H383.39L383.094 224.121ZM381.79 223.409H382.857L382.321 221.812L381.79 223.409ZM388.432 225H387.553L385.842 222.193V225H384.963V220.734H385.842L387.556 223.547V220.734H388.432V225ZM423.22 223.257H421.533V225H420.654V220.734H423.431V221.446H421.533V222.548H423.22V223.257ZM426.747 223.151H425.06V224.294H427.04V225H424.181V220.734H427.034V221.446H425.06V222.463H426.747V223.151ZM427.796 225V220.734H429.29C429.808 220.734 430.2 220.834 430.468 221.033C430.735 221.23 430.869 221.521 430.869 221.903C430.869 222.112 430.815 222.297 430.708 222.457C430.601 222.615 430.451 222.731 430.26 222.806C430.478 222.86 430.65 222.971 430.775 223.137C430.902 223.303 430.966 223.506 430.966 223.746C430.966 224.156 430.835 224.467 430.573 224.678C430.311 224.889 429.938 224.996 429.454 225H427.796ZM428.675 223.143V224.294H429.428C429.635 224.294 429.796 224.245 429.911 224.147C430.028 224.048 430.087 223.911 430.087 223.737C430.087 223.347 429.885 223.148 429.48 223.143H428.675ZM428.675 222.521H429.325C429.769 222.514 429.99 222.337 429.99 221.991C429.99 221.798 429.934 221.659 429.82 221.575C429.709 221.489 429.532 221.446 429.29 221.446H428.675V222.521Z" fill="#B3B0AA"/>
<path d="M24.7449 205.5H429.191V87C402.977 113 339.782 87 327.612 80.5C317.875 75.3 310.448 78.3333 307.951 80.5C302.334 84.6667 289.976 93 285.482 93C279.864 93 279.396 94.5 256.459 109C233.522 123.5 225.096 93.5 215.733 78C206.371 62.5 197.009 77 183.434 97C172.574 113 162.369 108.333 158.624 104C153.475 98.1667 141.585 86.4 135.219 86C127.261 85.5 124.452 78 111.813 64.5C99.1743 51 101.047 44 79.0456 81.5C59.5722 116.3 34.7312 69.3333 24.7449 41.5V205.5Z" fill="#F8FFDD"/>
<path d="M24.7449 205.5H429.191V160.5C422.95 148.166 403.164 127.9 373.954 145.5C352.89 155 347.272 152.5 327.612 141.5C318.249 134.5 306.547 140.5 292.035 150.5C277.524 160.5 268.63 145.5 265.353 143C262.076 140.5 255.523 134.5 243.352 133.5C231.181 132.5 222.287 116 218.074 112.5C213.861 109 205.435 95.4998 191.392 120C177.349 144.5 173.604 141 167.986 141C162.369 141 151.603 153 140.368 158.5C129.133 164 122.112 147 115.09 133.5C108.068 120 98.7061 102.5 86.5353 124C74.3645 145.5 65.0023 153.5 50.959 143.5C39.7244 135.5 28.8018 116.5 24.7449 108V205.5Z" fill="url(#paint0_linear)"/>
<path d="M24.7449 72C28.9579 86.5 41.6904 115.1 58.9169 113.5C80.4499 111.5 85.131 102 98.238 105C111.345 108 121.644 119.5 131.474 118.5C141.304 117.5 159.56 140.5 170.795 126C182.03 111.5 198.882 93 206.371 93C213.861 93 229.777 124 247.565 122C253.931 122 265.509 126.667 270.502 129C274.247 130.667 284.733 132.5 296.716 126.5C311.696 119 326.675 122 337.442 129C348.208 136 350.897 141.994 370.678 126.5C384.721 115.5 415.772 126.333 429.191 135" stroke="#CBED42" stroke-width="2"/>
<path d="M394.987 124C394.987 125.965 393.504 127.5 391.743 127.5C389.981 127.5 388.498 125.965 388.498 124C388.498 122.035 389.981 120.5 391.743 120.5C393.504 120.5 394.987 122.035 394.987 124Z" fill="#3C3A39" stroke="#F2F5FC"/>
<path d="M431.5 133C431.5 134.965 430.017 136.5 428.255 136.5C426.494 136.5 425.01 134.965 425.01 133C425.01 131.035 426.494 129.5 428.255 129.5C430.017 129.5 431.5 131.035 431.5 133Z" fill="#3C3A39" stroke="#F2F5FC"/>
<path d="M358.475 137C358.475 138.965 356.992 140.5 355.23 140.5C353.469 140.5 351.985 138.965 351.985 137C351.985 135.035 353.469 133.5 355.23 133.5C356.992 133.5 358.475 135.035 358.475 137Z" fill="#3C3A39" stroke="#F2F5FC"/>
<path d="M321.026 122C321.026 123.965 319.543 125.5 317.781 125.5C316.02 125.5 314.536 123.965 314.536 122C314.536 120.035 316.02 118.5 317.781 118.5C319.543 118.5 321.026 120.035 321.026 122Z" fill="#3C3A39" stroke="#F2F5FC"/>
<path d="M209.616 93C209.616 94.9645 208.133 96.5 206.371 96.5C204.61 96.5 203.126 94.9645 203.126 93C203.126 91.0355 204.61 89.5 206.371 89.5C208.133 89.5 209.616 91.0355 209.616 93Z" fill="#3C3A39" stroke="#F2F5FC"/>
<path d="M173.104 127C173.104 128.965 171.62 130.5 169.859 130.5C168.097 130.5 166.614 128.965 166.614 127C166.614 125.035 168.097 123.5 169.859 123.5C171.62 123.5 173.104 125.035 173.104 127Z" fill="#3C3A39" stroke="#F2F5FC"/>
<path d="M135.655 119C135.655 120.965 134.172 122.5 132.41 122.5C130.648 122.5 129.165 120.965 129.165 119C129.165 117.035 130.648 115.5 132.41 115.5C134.172 115.5 135.655 117.035 135.655 119Z" fill="#3C3A39" stroke="#F2F5FC"/>
<path d="M101.015 105C101.015 106.965 99.5315 108.5 97.7699 108.5C96.0083 108.5 94.525 106.965 94.525 105C94.525 103.035 96.0083 101.5 97.7699 101.5C99.5315 101.5 101.015 103.035 101.015 105Z" fill="#3C3A39" stroke="#F2F5FC"/>
<path d="M62.6298 114C62.6298 115.965 61.1465 117.5 59.385 117.5C57.6234 117.5 56.1401 115.965 56.1401 114C56.1401 112.035 57.6234 110.5 59.385 110.5C61.1465 110.5 62.6298 112.035 62.6298 114Z" fill="#3C3A39" stroke="#F2F5FC"/>
<path d="M27.9897 72C27.9897 73.9645 26.5064 75.5 24.7449 75.5C22.9833 75.5 21.5 73.9645 21.5 72C21.5 70.0355 22.9833 68.5 24.7449 68.5C26.5064 68.5 27.9897 70.0355 27.9897 72Z" fill="#3C3A39" stroke="#F2F5FC"/>
<defs>
<linearGradient id="paint0_linear" x1="226.968" y1="105.636" x2="226.968" y2="205.5" gradientUnits="userSpaceOnUse">
<stop stop-color="#D7F65A"/>
<stop offset="1" stop-color="#CAEC3F"/>
</linearGradient>
</defs>
</svg>
