<svg width="68" height="68" viewBox="0 0 68 68" fill="none" xmlns="http://www.w3.org/2000/svg">
<path d="M18.1907 42.797C18.8257 42.4307 19.0431 41.6178 18.6768 40.9828C18.3101 40.3483 17.4976 40.1304 16.8626 40.4966C16.2276 40.8634 16.0097 41.6764 16.3765 42.3109C16.7428 42.9459 17.5557 43.1638 18.1907 42.797Z" fill="black" fill-opacity="0.74"/>
<path d="M12.7481 51.9636L19.4364 63.5489C20.8797 66.0515 24.1264 66.9781 26.6939 65.4938C29.2345 64.0256 30.1076 60.7795 28.6379 58.2369L24.6535 51.3348L28.104 49.3426C28.739 48.9753 28.9569 48.1634 28.5901 47.5284L26.863 44.537C27.069 44.497 28.4231 44.2314 52.3018 39.5471C55.2538 39.3868 57.0224 36.1584 55.5314 33.5773L51.1174 25.9323L53.9381 21.66C54.2152 21.2398 54.2318 20.6997 53.9801 20.2639L51.3239 15.6632C51.0723 15.2274 50.5945 14.9722 50.0938 15.0017L44.9842 15.3083L40.0841 6.8208C39.3744 5.59125 38.1028 4.84677 36.6834 4.82913C36.6663 4.82861 36.6497 4.82861 36.6325 4.82861C35.2608 4.82861 34.0157 5.51135 33.278 6.66568L15.9283 28.7675L4.64912 35.2795C0.212869 37.8398 -1.32381 43.531 1.24632 47.9792C3.5944 52.0466 8.54478 53.6465 12.7481 51.9636ZM26.338 59.5655C27.0716 60.8345 26.6374 62.4583 25.3648 63.1935C24.088 63.9317 22.4621 63.4783 21.7368 62.2213L15.0962 50.7179L19.6969 48.0617C27.3824 61.3751 26.2145 59.3523 26.338 59.5655ZM23.3254 49.0339L21.9972 46.7336L24.2976 45.4054L25.6257 47.7058L23.3254 49.0339ZM49.4339 17.7021L51.2694 20.8813L49.6326 23.3601L46.469 17.88L49.4339 17.7021ZM35.4995 8.12195C35.8559 7.53882 36.4214 7.47864 36.6507 7.48486C36.8774 7.48746 37.4424 7.55801 37.7832 8.14841L53.231 34.9055C53.7342 35.7765 53.1226 36.8717 52.1135 36.8966C51.9324 36.9008 51.8489 36.9334 51.3851 37.0201L35.0445 8.71701C35.3874 8.27603 35.4315 8.23349 35.4995 8.12195ZM33.277 10.9686L48.6298 37.5607L25.4592 42.1053L18.4139 29.9027L33.277 10.9686ZM3.54667 46.6511C2.96354 45.642 2.65537 44.4965 2.65537 43.3375C2.65537 40.9687 3.92851 38.7627 5.97724 37.5799L16.3288 31.6033L22.9695 43.1051L12.6179 49.0822C9.44645 50.9125 5.37751 49.822 3.54667 46.6511Z" fill="black" fill-opacity="0.74"/>
<path d="M14.0761 43.6389C13.7093 43.0038 12.8969 42.7859 12.2619 43.1527L9.96155 44.4809C9.32757 44.8471 8.51358 44.6287 8.14731 43.9948C7.78052 43.3597 6.96808 43.1418 6.33307 43.5086C5.69806 43.8754 5.48016 44.6879 5.84695 45.3229C6.94006 47.2165 9.37842 47.8842 11.2897 46.7812L13.59 45.4531C14.225 45.0863 14.4429 44.2744 14.0761 43.6389Z" fill="black" fill-opacity="0.74"/>
<path d="M66.0259 7.66949L58.6252 11.7877C57.9845 12.1446 57.7536 12.9535 58.1105 13.5942C58.4664 14.2344 59.2747 14.4663 59.917 14.1088L67.3171 9.9906C67.9584 9.63366 68.1887 8.82485 67.8318 8.18414C67.4754 7.5429 66.6666 7.31256 66.0259 7.66949Z" fill="black" fill-opacity="0.74"/>
<path d="M65.25 21.4248L60.1185 20.05C59.4098 19.8601 58.6814 20.2804 58.4916 20.989C58.3017 21.6977 58.7224 22.4256 59.4311 22.6155L64.5631 23.9903C65.2759 24.1817 66.0007 23.7548 66.1895 23.0513C66.3794 22.3426 65.9586 21.6142 65.25 21.4248Z" fill="black" fill-opacity="0.74"/>
<path d="M52.3544 2.84402L50.978 7.97597C50.7882 8.68465 51.2084 9.41252 51.9171 9.60292C52.6252 9.79228 53.3536 9.3731 53.544 8.6639L54.9199 3.53194C55.1098 2.82326 54.6895 2.09487 53.9808 1.90499C53.2727 1.71511 52.5443 2.13534 52.3544 2.84402Z" fill="black" fill-opacity="0.74"/>
</svg>
