<svg width="150" height="56" viewBox="0 0 150 56" fill="none" xmlns="http://www.w3.org/2000/svg">
<g clip-path="url(#clip0)">
<path d="M13.4663 39.2404C14.3235 39.2404 15.0577 38.7218 15.6671 37.6827C21.2421 27.7969 24.1422 22.6511 24.3685 22.2434L18.8163 12.5612C18.2292 11.5455 17.4842 11.0376 16.582 11.0376H8.48983C7.96986 11.0376 7.60975 11.2069 7.40628 11.5454C7.15774 11.884 7.16914 12.3018 7.43995 12.7976L12.8906 22.2434C12.9128 22.2675 12.9128 22.2777 12.8906 22.2777L4.32482 37.4461C4.0998 37.876 4.0998 38.2818 4.32482 38.6642C4.54994 39.049 4.90052 39.2404 5.37417 39.2404H13.4663Z" fill="black"/>
<path d="M50.6071 0H42.4478C41.5677 0 40.8449 0.507845 40.2813 1.52364C28.7021 22.0636 22.7092 32.6956 22.3027 33.4165L33.7799 54.4765C34.3214 55.4921 35.0664 56 36.0142 56H44.1058C44.6021 56 44.9636 55.8307 45.1893 55.4922C45.4143 55.1073 45.4036 54.6895 45.1557 54.2387L33.7805 33.4165V33.3836L51.657 1.76067C51.905 1.28712 51.905 0.870547 51.657 0.508466C51.4535 0.169282 51.1035 0 50.6071 0Z" fill="black"/>
</g>
<path d="M74.0459 37.7998L69.2719 30.7158H69.0255L64.2207 37.7998H59.3543L66.5307 27.1738L59.4775 16.6094H64.5287L69.1795 23.4778H69.4259L74.1075 16.6094H79.0047L71.9515 27.0814L79.0971 37.7998H74.0459ZM88.2372 44.1446C87.2927 44.1446 86.3276 44.1138 85.342 44.0522C84.3564 43.9906 83.5454 43.9085 82.9088 43.8058V40.6642C85.0648 40.7258 86.5227 40.7566 87.2824 40.7566C88.6787 40.7566 89.6643 40.6539 90.2392 40.4486C90.8347 40.2638 91.2043 39.925 91.348 39.4322C91.5123 38.9394 91.5944 38.0873 91.5944 36.8758V35.767H91.3788C90.9887 36.4857 90.4138 37.0093 89.654 37.3378C88.9148 37.6663 87.9498 37.8306 86.7588 37.8306C85.3831 37.8306 84.3359 37.6047 83.6172 37.153C82.8986 36.7013 82.416 36.0545 82.1696 35.2126C81.9232 34.3502 81.8 33.1901 81.8 31.7322V22.0918H85.8964V30.223C85.8964 31.5371 85.9478 32.4509 86.0504 32.9642C86.1736 33.4775 86.4098 33.8163 86.7588 33.9806C87.1284 34.1243 87.7547 34.1962 88.6376 34.1962C89.5206 34.1962 90.1674 34.0627 90.578 33.7958C90.9887 33.5289 91.2556 33.1182 91.3788 32.5638C91.5226 32.0094 91.5944 31.1778 91.5944 30.069V22.0918H95.6908V36.0134C95.6908 38.1489 95.5368 39.7607 95.2288 40.849C94.9208 41.9373 94.233 42.7586 93.1652 43.313C92.118 43.8674 90.4754 44.1446 88.2372 44.1446ZM109.822 29.4838C109.822 28.1697 109.76 27.2559 109.637 26.7426C109.534 26.2293 109.308 25.9007 108.959 25.757C108.61 25.5927 107.994 25.5106 107.111 25.5106C106.228 25.5106 105.571 25.6441 105.14 25.911C104.73 26.1779 104.452 26.5989 104.309 27.1738C104.185 27.7487 104.124 28.5803 104.124 29.6686V37.7998H100.027V22.0918H103.877L104.001 24.0322H104.247C104.637 23.2725 105.222 22.7181 106.003 22.369C106.783 22.0199 107.779 21.8454 108.99 21.8454C110.366 21.8454 111.413 22.0713 112.132 22.523C112.85 22.9747 113.323 23.6318 113.549 24.4942C113.795 25.3566 113.918 26.5167 113.918 27.9746V37.7998H109.822V29.4838ZM124.908 38.0462C122.649 38.0462 121.016 37.8203 120.01 37.3686C119.025 36.8963 118.388 36.1263 118.101 35.0586C117.834 33.9909 117.7 32.2763 117.7 29.915C117.7 27.5537 117.834 25.8494 118.101 24.8022C118.388 23.7345 119.025 22.9747 120.01 22.523C120.996 22.0713 122.628 21.8454 124.908 21.8454C127.187 21.8454 128.819 22.0713 129.805 22.523C130.79 22.9747 131.417 23.7345 131.684 24.8022C131.971 25.8494 132.115 27.5537 132.115 29.915C132.115 32.2763 131.971 33.9909 131.684 35.0586C131.417 36.1263 130.78 36.8963 129.774 37.3686C128.788 37.8203 127.166 38.0462 124.908 38.0462ZM124.908 34.6582C125.975 34.6582 126.704 34.5555 127.094 34.3502C127.505 34.1449 127.751 33.7547 127.834 33.1798C127.936 32.6049 127.988 31.5166 127.988 29.915C127.988 28.3134 127.936 27.2354 127.834 26.681C127.751 26.1061 127.505 25.7262 127.094 25.5414C126.704 25.3361 125.975 25.2334 124.908 25.2334C123.84 25.2334 123.101 25.3361 122.69 25.5414C122.3 25.7262 122.053 26.1061 121.951 26.681C121.869 27.2354 121.828 28.3134 121.828 29.915C121.828 31.5166 121.869 32.6049 121.951 33.1798C122.053 33.7547 122.3 34.1449 122.69 34.3502C123.101 34.5555 123.84 34.6582 124.908 34.6582ZM141.64 38.0462C140.716 38.0462 139.679 38.0051 138.529 37.923C137.4 37.8409 136.414 37.7382 135.573 37.615V34.4118C136.312 34.4939 137.174 34.5658 138.16 34.6274C139.166 34.6685 140.039 34.689 140.778 34.689C141.702 34.689 142.369 34.6479 142.78 34.5658C143.211 34.4631 143.488 34.3194 143.611 34.1346C143.735 33.9293 143.796 33.611 143.796 33.1798C143.796 32.7691 143.755 32.4817 143.673 32.3174C143.611 32.1531 143.468 32.0402 143.242 31.9786C143.036 31.8965 142.667 31.8246 142.133 31.763L138.499 31.301C137.554 31.1983 136.835 30.9519 136.343 30.5618C135.85 30.1717 135.511 29.6686 135.326 29.0526C135.162 28.4161 135.08 27.5947 135.08 26.5886C135.08 25.2334 135.336 24.217 135.85 23.5394C136.384 22.8413 137.092 22.3895 137.975 22.1842C138.878 21.9583 140.039 21.8454 141.455 21.8454C142.359 21.8454 143.314 21.8967 144.32 21.9994C145.346 22.0815 146.178 22.1945 146.815 22.3382V25.4798C145.049 25.295 143.457 25.2026 142.041 25.2026C141.178 25.2026 140.542 25.2334 140.131 25.295C139.72 25.3361 139.423 25.4593 139.238 25.6646C139.053 25.8699 138.961 26.1882 138.961 26.6194C138.961 27.0095 138.991 27.2867 139.053 27.451C139.115 27.6153 139.238 27.7385 139.423 27.8206C139.628 27.8822 139.967 27.9438 140.439 28.0054L144.381 28.4674C145.182 28.5701 145.808 28.7549 146.26 29.0218C146.732 29.2682 147.081 29.7097 147.307 30.3462C147.554 30.9622 147.677 31.8759 147.677 33.0874C147.677 34.5042 147.441 35.5719 146.969 36.2906C146.496 36.9887 145.839 37.461 144.997 37.7074C144.155 37.9333 143.036 38.0462 141.64 38.0462Z" fill="black"/>
<defs>
<clipPath id="clip0">
<rect width="56" height="56" fill="white"/>
</clipPath>
</defs>
</svg>
