<svg width="38" height="47" viewBox="0 0 38 47" fill="none" xmlns="http://www.w3.org/2000/svg">
<path d="M12.5002 0.349365C9.65704 1.99089 7.165 4.17635 5.16641 6.78096C3.16782 9.38558 1.70181 12.3583 0.852098 15.5295C0.00238365 18.7007 -0.214399 22.0082 0.214124 25.2632C0.642648 28.5181 1.70809 31.6568 3.34961 34.5C4.99114 37.3432 7.1766 39.8352 9.78121 41.8338C12.3858 43.8324 15.3586 45.2984 18.5298 46.1481C21.701 46.9979 25.0084 47.2146 28.2634 46.7861C31.5184 46.3576 34.657 45.2922 37.5002 43.6506L32.4319 34.8719C30.7415 35.8479 28.8755 36.4813 26.9403 36.7361C25.0051 36.9909 23.0387 36.862 21.1534 36.3568C19.268 35.8516 17.5006 34.98 15.9521 33.7918C14.4036 32.6036 13.1042 31.122 12.1283 29.4316C11.1524 27.7413 10.5189 25.8752 10.2642 23.94C10.0094 22.0049 10.1383 20.0385 10.6434 18.1531C11.1486 16.2677 12.0202 14.5004 13.2084 12.9518C14.3967 11.4033 15.8783 10.104 17.5686 9.12805L12.5002 0.349365Z" fill="#E7E7DC"/>
</svg>
